<?xml version="1.0" encoding="iso-8859-1"?>
<!-- Uploaded to: SVG Repo, www.svgrepo.com, Generator: SVG Repo Mixer Tools -->
<svg height="800px" width="800px" version="1.1" id="Layer_1" xmlns="http://www.w3.org/2000/svg" xmlns:xlink="http://www.w3.org/1999/xlink" 
	 viewBox="0 0 460 460" xml:space="preserve">
<g id="XMLID_2877_">
	<path id="XMLID_1040_" style="fill:#7A8D93;" d="M320,140.89V200v110v60c-33.137,0-60-26.863-60-60h-60c0,33.137-26.863,60-60,60
		v-60V200v-59.11H320z"/>
	<path id="XMLID_1042_" style="fill:#90ACBF;" d="M390,110v30c0,33.137-26.863,60-60,60H130c-33.137,0-60-26.863-60-60v-30
		C70,49.249,119.249,0,180,0h100C340.751,0,390,49.249,390,110z"/>
	<path id="XMLID_1016_" style="fill:#5E777F;" d="M390,113.235v25c0,26.535-16.259,49.156-39.078,57.898
		c-7.455,2.494-15.449,3.866-23.779,3.866H132.857c-8.33,0-16.325-1.373-23.78-3.867C86.258,187.391,70,164.771,70,138.235v-25
		c0-2.236,0.07-4.456,0.194-6.66c12.695,20.711,35.997,34.601,62.663,34.601h194.286c26.666,0,49.968-13.89,62.663-34.601
		C389.93,108.78,390,110.999,390,113.235z"/>
	<path id="XMLID_444_" style="fill:#99B6C6;" d="M340,110v5c0,33.137-26.863,60-60,60H180c-33.137,0-60-26.863-60-60v-5
		C120,49.249,169.249,0,230,0l0,0C290.751,0,340,49.249,340,110z"/>
	<path id="XMLID_443_" style="fill:#B8CED3;" d="M325,56.618L325,56.618c0,19.898-15.67,36.029-35,36.029H170
		c-19.33,0-35-16.131-35-36.029l0,0c0-0.171,0.011-0.339,0.012-0.51C154.102,22.545,189.491,0,230,0l0,0
		c40.509,0,75.898,22.545,94.987,56.107C324.989,56.278,325,56.446,325,56.618z"/>
	<path id="XMLID_441_" style="fill:#CEE0EA;" d="M270,20L270,20c0,11.046-8.954,20-20,20h-40c-11.046,0-20-8.954-20-20l0,0
		c0-11.046,8.954-20,20-20h40C261.046,0,270,8.954,270,20z"/>
	<path id="XMLID_1041_" style="fill:#7A8D93;" d="M334.063,140.855C324.027,172.407,303.753,194,280.351,194H179.649
		c-23.402,0-43.676-21.593-53.712-53.145c2.278,0.208,4.586,0.321,6.92,0.321h194.286
		C329.478,141.176,331.785,141.063,334.063,140.855z"/>
	<path id="XMLID_1014_" style="fill:#3E4C4F;" d="M320,200L320,200H140l0,0c0-11.046,8.954-20,20-20h140
		C311.046,180,320,188.954,320,200z"/>
	<path id="XMLID_1418_" style="fill:#96B0BC;" d="M188,180v20l-7.055,70.546c-0.537,5.367-5.053,9.454-10.447,9.454
		C164.7,280,160,275.3,160,269.501V200v-20H188z"/>
	<path id="XMLID_1417_" style="fill:#96B0BC;" d="M300,180v20v69.501C300,275.3,295.3,280,289.501,280
		c-5.394,0-9.91-4.087-10.447-9.454L272,200v-20H300z"/>
	<path id="XMLID_979_" style="fill:#5E7275;" d="M370,330L370,330c0,22.091-17.909,40-40,40h-10c-33.137,0-60-26.863-60-60v120
		c0,16.849-13.89,30.453-30.843,29.988C212.816,459.541,200,445.723,200,429.376V310c0,33.137-26.863,60-60,60h-10
		c-22.091,0-40-17.909-40-40l0,0c0-11.046,8.954-20,20-20h30c33.137,0,60-26.863,60-60v-40c0-5.523-4.477-10-10-10h-30v-20h140v20
		h-30c-5.523,0-10,4.477-10,10v40c0,33.137,26.863,60,60,60h30C361.046,310,370,318.954,370,330z"/>
	<path id="XMLID_1003_" style="fill:#96B0BC;" d="M300,180L300,180h-35.81c-7.961,0-14.535,6.219-14.977,14.168l-8.658,155.848
		c-0.326,5.866-5.392,10.396-11.356,9.955c-5.357-0.396-9.475-4.943-9.772-10.307l-8.639-155.496
		C210.345,186.219,203.771,180,195.81,180H160l0,0c0-11.046,8.954-20,20-20h100C291.046,160,300,168.954,300,180z"/>
	<path id="XMLID_2148_" style="fill:#3E4C4F;" d="M260,400v30c0,16.568-13.431,30-30,30l0,0c-16.569,0-30-13.432-30-30v-30
		c0,16.433,13.214,29.772,29.596,29.99c0.055,0.001,0.108,0.009,0.164,0.009c0.08,0,0.16,0.001,0.241,0.001l0,0
		c0.08,0,0.16,0,0.241-0.001c0.055,0,0.109-0.008,0.164-0.009C246.786,429.772,260,416.433,260,400z"/>
	<path id="XMLID_1523_" style="fill:#3E4C4F;" d="M200,310v-7.977c0-1.117-0.906-2.023-2.023-2.023c-0.845,0-1.588,0.53-1.889,1.319
		C187.49,323.929,165.627,340,140,340h-10c-15.696,0-29.272-9.045-35.822-22.202C91.569,321.177,90,325.4,90,330l0,0
		c0,22.091,17.909,40,40,40h10C173.137,370,200,343.137,200,310L200,310z"/>
	<path id="XMLID_2157_" style="fill:#3E4C4F;" d="M365.822,317.798C359.272,330.955,345.696,340,330,340h-10
		c-25.627,0-47.49-16.071-56.088-38.681c-0.3-0.79-1.044-1.319-1.889-1.319c-1.117,0-2.023,0.906-2.023,2.023V310l0,0
		c0,33.137,26.863,60,60,60h10c22.091,0,40-17.909,40-40l0,0C370,325.4,368.431,321.177,365.822,317.798z"/>
</g>
</svg>